<svg xmlns="http://www.w3.org/2000/svg" viewBox="0 0 520 200" role="img" aria-label="Cursor skill chain for Build column">
  <defs>
    <marker id="arr" markerWidth="8" markerHeight="8" refX="6" refY="4" orient="auto">
      <path d="M0,0 L8,4 L0,8 Z" fill="#5a6b7e"/>
    </marker>
  </defs>
  <rect x="10" y="70" width="110" height="50" rx="8" fill="#eff6ff" stroke="#1d4ed8" stroke-width="2"/>
  <text x="65" y="100" text-anchor="middle" font-family="IBM Plex Sans, sans-serif" font-size="11" fill="#34495d">grill-with-docs</text>
  <rect x="140" y="70" width="80" height="50" rx="8" fill="#eff6ff" stroke="#1d4ed8" stroke-width="2"/>
  <text x="180" y="100" text-anchor="middle" font-family="IBM Plex Sans, sans-serif" font-size="11" fill="#34495d">to-spec</text>
  <rect x="240" y="70" width="90" height="50" rx="8" fill="#eff6ff" stroke="#1d4ed8" stroke-width="2"/>
  <text x="285" y="100" text-anchor="middle" font-family="IBM Plex Sans, sans-serif" font-size="11" fill="#34495d">to-tickets</text>
  <rect x="350" y="70" width="90" height="50" rx="8" fill="#eff6ff" stroke="#1d4ed8" stroke-width="2"/>
  <text x="395" y="100" text-anchor="middle" font-family="IBM Plex Sans, sans-serif" font-size="11" fill="#34495d">implement</text>
  <rect x="460" y="55" width="50" height="35" rx="6" fill="#faf0e5" stroke="#e0a53b" stroke-width="1.5"/>
  <text x="485" y="77" text-anchor="middle" font-family="IBM Plex Sans, sans-serif" font-size="9" fill="#34495d">tdd</text>
  <rect x="460" y="100" width="50" height="35" rx="6" fill="#faf0e5" stroke="#e0a53b" stroke-width="1.5"/>
  <text x="485" y="122" text-anchor="middle" font-family="IBM Plex Sans, sans-serif" font-size="9" fill="#34495d">review</text>
  <line x1="120" y1="95" x2="138" y2="95" stroke="#5a6b7e" stroke-width="2" marker-end="url(#arr)"/>
  <line x1="220" y1="95" x2="238" y2="95" stroke="#5a6b7e" stroke-width="2" marker-end="url(#arr)"/>
  <line x1="330" y1="95" x2="348" y2="95" stroke="#5a6b7e" stroke-width="2" marker-end="url(#arr)"/>
  <line x1="440" y1="90" x2="458" y2="72" stroke="#94a3b8" stroke-width="1.5"/>
  <line x1="440" y1="100" x2="458" y2="118" stroke="#94a3b8" stroke-width="1.5"/>
  <text x="260" y="30" text-anchor="middle" font-family="IBM Plex Sans, sans-serif" font-size="12" font-weight="600" fill="#34495d">Build column — non-trivial work only</text>
  <text x="260" y="175" text-anchor="middle" font-family="IBM Plex Sans, sans-serif" font-size="10" fill="#848484">Tiny builds: skip to implement (optional light grill)</text>
</svg>
